<?xml version="1.0" encoding="UTF-8" standalone="no"?>
<svg width="281px" height="281px" viewBox="0 0 281 281" version="1.1" xmlns="http://www.w3.org/2000/svg" xmlns:xlink="http://www.w3.org/1999/xlink">
    <!-- Generator: Sketch 42 (36781) - http://www.bohemiancoding.com/sketch -->
    <title>account</title>
    <desc>Created with Sketch.</desc>
    <defs></defs>
    <g id="Page-1" stroke="none" stroke-width="1" fill="none" fill-rule="evenodd">
        <g id="account" transform="translate(1.000000, 1.000000)" stroke="#FFFFFF" fill="#DCDCDC">
            <path d="M139.5,0 C62.775,0 0,62.3390625 0,139.5 C0,216.225 62.775,279 139.5,279 C216.225,279 279,216.225 279,139.5 C279,62.3390625 216.225,0 139.5,0 Z M93.290625,258.946875 L93.290625,225.379688 C93.290625,222.328125 91.1109375,220.148438 88.059375,220.148438 C85.0078125,220.148438 82.828125,222.328125 82.828125,225.379688 L82.828125,254.151563 C74.109375,249.792188 65.390625,244.560938 57.9796875,238.021875 L60.159375,195.3 C60.159375,190.940625 62.775,187.453125 66.6984375,185.709375 L109.420313,166.528125 C110.292188,166.092188 111.164063,166.528125 112.035938,166.964063 C116.83125,171.323438 126.421875,178.734375 139.064063,178.734375 C151.70625,178.734375 161.296875,171.323438 166.092188,167.4 C166.964063,166.528125 167.835938,166.528125 168.707813,166.964063 L212.301563,186.58125 C215.789063,187.889063 218.404688,191.8125 218.404688,195.735938 L220.584375,238.021875 C212.7375,244.560938 204.454688,249.792188 195.3,254.151563 L195.3,224.94375 C195.3,221.892188 193.120313,219.7125 190.06875,219.7125 C187.017188,219.7125 184.8375,221.892188 184.8375,224.94375 L184.8375,258.510938 C170.451563,263.742188 155.19375,266.79375 139.064063,266.79375 C123.370313,267.665625 107.676563,264.614063 93.290625,258.946875 Z M230.610937,229.739063 L228.867188,196.171875 C228.867188,187.889062 224.071875,180.914062 216.660938,177.8625 L173.067188,158.245312 C168.271875,156.501563 163.040625,157.373437 159.117188,160.860937 C155.629687,163.9125 148.654687,169.579688 139.064063,169.579688 C129.909375,169.579688 122.498437,163.9125 119.010937,160.860937 C115.523437,157.373438 109.85625,156.501563 105.060937,158.245312 L62.3390625,177.426562 C54.4921875,180.478125 49.696875,187.889062 49.696875,196.171875 L47.953125,230.175 C25.284375,206.198437 10.8984375,174.375 10.8984375,139.5 C10.8984375,68.4421875 68.878125,10.8984375 139.5,10.8984375 C210.121875,10.8984375 268.101562,68.4421875 268.101562,139.5 C268.101562,174.375 253.715625,206.198437 230.610937,229.739063 Z" id="Shape" stroke-width="2"></path>
            <path d="M139.064062,36.61875 C115.523437,36.61875 96.778125,55.8 96.778125,78.9046875 L96.778125,102.009375 C96.778125,121.626563 108.548437,139.5 127.29375,149.090625 C131.217187,150.834375 135.140625,151.70625 139.5,151.70625 C143.423437,151.70625 147.782812,150.834375 151.70625,149.090625 C170.451562,139.935938 182.221875,122.0625 182.221875,102.009375 L182.221875,78.9046875 C181.35,55.3640625 162.604687,36.61875 139.064062,36.61875 Z M171.323437,102.009375 C171.323437,117.703125 161.732812,132.089063 146.910937,139.935938 C142.115625,142.115625 136.884375,142.115625 132.089062,139.935938 C116.83125,132.525 107.676562,118.139063 107.676562,102.009375 L107.676562,78.9046875 C107.676562,61.4671875 122.0625,47.08125 139.5,47.08125 C156.9375,47.08125 171.323437,61.4671875 171.323437,78.9046875 L171.323437,102.009375 Z" id="Shape"></path>
        </g>
    </g>
</svg>