<svg height="512pt" viewBox="0 -83 512 512" width="512pt" xmlns="http://www.w3.org/2000/svg"><path d="m482 0h-452c-16.539062 0-30 13.460938-30 30v99.988281c0 36.332031 28.089844 66.5 63.691406 69.710938 7.46875 10.28125 19.386719 16.472656 32.308594 16.472656h320c12.921875 0 24.839844-6.191406 32.308594-16.472656 35.601562-3.210938 63.691406-33.378907 63.691406-69.710938v-99.988281c0-16.539062-13.460938-30-30-30zm-376 20h300v40h-300zm330 156.171875c0 2.417969-.429688 4.757813-1.28125 6.988281-.277344.738282-.609375 1.46875-.980469 2.179688-.007812 0-.007812.011718-.007812.011718-3.480469 6.679688-10.269531 10.820313-17.730469 10.820313h-320c-7.460938 0-14.25-4.140625-17.738281-10.832031-1.5-2.859375-2.261719-5.941406-2.261719-9.167969h70c5.519531 0 10-4.480469 10-10 0-5.523437-4.480469-10-10-10h-70v-20h360zm56-46.183594c0 22.632813-15.269531 41.921875-36.039062 48 .007812-.207031.019531-.410156.019531-.617187.007812-.402344.019531-.800782.019531-1.199219v-50c0-5.523437-4.480469-10-10-10h-380c-5.519531 0-10 4.476563-10 10v50c0 .398437.011719.796875.019531 1.199219 0 .207031.011719.410156.019531.617187-20.769531-6.078125-36.039062-25.367187-36.039062-48v-99.988281c0-5.511719 4.488281-10 10-10h56v50c0 5.519531 4.480469 10 10 10h320c5.519531 0 10-4.480469 10-10v-50h56c5.511719 0 10 4.488281 10 10zm0 0"/><path d="m256 336c-5.523438 0-10-4.476562-10-10v-79.996094c0-5.523437 4.476562-10 10-10s10 4.476563 10 10v79.996094c0 5.523438-4.476562 10-10 10zm0 0"/><path d="m186.019531 176.167969c-5.523437 0-10.003906-4.476563-10.003906-10 0-5.523438 4.472656-10 9.996094-10h.007812c5.523438 0 10 4.476562 10 10 0 5.523437-4.476562 10-10 10zm0 0"/><path d="m106 346c-5.523438 0-10-4.476562-10-10s4.476562-10 10-10c44.113281 0 80-35.886719 80-79.996094 0-5.523437 4.476562-10 10-10s10 4.476563 10 10c0 55.140625-44.859375 99.996094-100 99.996094zm0 0"/><path d="m406 346c-55.140625 0-100-44.855469-100-99.996094 0-5.523437 4.476562-10 10-10s10 4.476563 10 10c0 44.109375 35.886719 79.996094 80 79.996094 5.523438 0 10 4.476562 10 10s-4.476562 10-10 10zm0 0"/></svg>