<svg height="512pt" viewBox="-21 0 512 512" width="512pt" xmlns="http://www.w3.org/2000/svg"><path d="m140 160v-150c0-5.523438-4.476562-10-10-10s-10 4.476562-10 10v110h-40v-110c0-5.523438-4.476562-10-10-10s-10 4.476562-10 10v110h-40v-110c0-5.523438-4.476562-10-10-10s-10 4.476562-10 10v150c0 18.605469 12.765625 34.28125 30 38.734375v141.894531c0 29.894532-5.34375 58.835938-11 89.480469-3.152344 17.078125-4 20.542969-4 26.890625 0 30.328125 24.671875 55 55 55s55-24.671875 55-55c0-6.328125-.8125-9.625-4-26.890625-5.65625-30.644531-11-59.589844-11-89.480469v-141.894531c17.234375-4.453125 30-20.128906 30-38.734375zm-120 0v-20h100v20c0 11.027344-8.972656 20-20 20h-60c-11.027344 0-20-8.972656-20-20zm50 332c-19.300781 0-35-15.699219-35-35 0-3.730469.191406-4.425781 3.667969-23.261719 5.570312-30.179687 11.332031-61.386719 11.332031-93.109375v-140.628906h40v140.628906c0 31.722656 5.761719 62.929688 11.332031 93.109375 3.429688 18.589844 3.667969 19.433594 3.667969 23.261719 0 19.300781-15.699219 35-35 35zm0 0"/><path d="m199 430.109375c-3.152344 17.078125-4 20.542969-4 26.890625 0 30.328125 24.671875 55 55 55s55-24.671875 55-55c0-6.328125-.8125-9.625-4-26.890625-5.65625-30.644531-11-59.589844-11-89.480469 0-21.050781 0-296.929687 0-310.628906 0-16.542969-13.457031-30-30-30-27.761719 0-57.210938 20.550781-65.644531 45.8125-23.136719 69.265625-20.824219 150.9375 6.191406 218.472656l9.453125 23.640625v52.703125c0 29.890625-5.34375 58.835938-11 89.480469zm51 61.890625c-19.300781 0-35-15.699219-35-35 0-3.730469.191406-4.425781 3.667969-23.261719 5.570312-30.179687 11.332031-61.386719 11.332031-93.109375v-44.628906h40v44.628906c0 31.722656 5.761719 62.929688 11.332031 93.109375 3.429688 18.589844 3.667969 19.433594 3.667969 23.261719 0 19.300781-15.699219 35-35 35zm-36.675781-439.851562c5.71875-17.125 27.53125-32.148438 46.675781-32.148438 5.515625 0 10 4.484375 10 10v246h-43.230469l-7.65625-19.144531c-25.304687-63.269531-27.46875-139.796875-5.789062-204.707031zm0 0"/><path d="m470 130c0-51.753906-27.917969-130-70-130s-70 78.246094-70 130c0 30.886719 10.085938 51.730469 30 62.089844v148.539062c0 29.894532-5.34375 58.835938-11 89.480469-3.152344 17.082031-4 20.542969-4 26.890625 0 30.328125 24.671875 55 55 55s55-24.671875 55-55c0-6.328125-.8125-9.621094-4-26.890625-5.65625-30.644531-11-59.589844-11-89.480469v-148.539062c19.914062-10.359375 30-31.203125 30-62.089844zm-43.492188 46.230469c-3.914062 1.457031-6.507812 5.191406-6.507812 9.371093v155.027344c0 31.722656 5.761719 62.929688 11.332031 93.109375 3.429688 18.589844 3.667969 19.433594 3.667969 23.261719 0 19.300781-15.699219 35-35 35s-35-15.699219-35-35c0-3.730469.191406-4.425781 3.667969-23.261719 5.570312-30.179687 11.332031-61.386719 11.332031-93.109375v-155.027344c0-4.179687-2.59375-7.914062-6.507812-9.371093-10.085938-3.757813-23.492188-12.636719-23.492188-46.230469 0-50.375 27.101562-110 50-110s50 59.625 50 110c0 33.59375-13.40625 42.472656-23.492188 46.230469zm0 0"/><path d="m250 90c0 5.523438-4.476562 10-10 10s-10-4.476562-10-10 4.476562-10 10-10 10 4.476562 10 10zm0 0"/><path d="m240 226c5.523438 0 10-4.476562 10-10v-81c0-5.523438-4.476562-10-10-10s-10 4.476562-10 10v81c0 5.523438 4.476562 10 10 10zm0 0"/></svg>