<svg height="512pt" viewBox="-26 0 512 512" width="512pt" xmlns="http://www.w3.org/2000/svg"><path d="m450 80.007812c5.519531 0 10-4.476562 10-10v-60.007812c0-5.523438-4.480469-10-10-10h-320c-5.519531 0-10 4.476562-10 10s4.480469 10 10 10h310v40.007812h-420v-40.007812h30c5.523438 0 10-4.476562 10-10s-4.476562-10-10-10h-40c-5.523438 0-10 4.476562-10 10v60.007812c0 5.523438 4.476562 10 10 10h10v351.984376h-10c-5.523438 0-10 4.476562-10 10v60.007812c0 5.523438 4.476562 10 10 10h440c5.519531 0 10-4.476562 10-10v-60.007812c0-5.523438-4.480469-10-10-10h-10v-351.984376zm-350 0h260v20h-260zm340 411.992188h-420v-40.007812h9.992188.007812.011719 83.859375.007812.011719 85.25c.011719 0 .019531.003906.03125.003906.007813 0 .019531-.003906.027344-.003906h85.246093.023438.023438 69.378906.007812.011719 76.097656.011719.011719 9.988281zm-273.121094-101.246094c0-17.925781 11.03125-37.128906 21.699219-55.699218 10.355469-18.03125 20.222656-35.203126 19.785156-51.394532 13.25 6.949219 41.273438 25.539063 39.347657 57.679688-.222657 3.707031 1.628906 7.230468 4.804687 9.152344 3.175781 1.921874 7.152344 1.929687 10.335937.015624 6.695313-4.03125 12.355469-9.15625 16.605469-15 13.460938 12.460938 21.917969 33.511719 21.398438 54.171876-.238281 9.585937-2.675781 26.132812-15.148438 38.445312 7.105469-20.835938 3.3125-42.496094-11.300781-57.238281-1.980469-1.996094-4.703125-3.074219-7.507812-2.953125-2.804688.113281-5.433594 1.402344-7.242188 3.546875-6.539062 7.761719-15.203125 10.054687-22.070312 5.847656-6.679688-4.097656-11.820313-15.175781-4.328126-32.925781 1.664063-3.941406.640626-8.503906-2.554687-11.351563-3.191406-2.847656-7.84375-3.347656-11.570313-1.25-22.554687 12.722657-37.140624 30.09375-42.183593 50.230469-3.953125 15.789062-2.03125 32.816406 5.515625 49.964844h-.625c-9.667969-11.804688-14.960938-26.289063-14.960938-41.242188zm37.957032 41.238282c-8.972657-15.878907-11.917969-31.386719-8.484376-45.105469 2.121094-8.480469 6.59375-16.242188 13.359376-23.21875.9375 14.242187 8.140624 25.015625 17.421874 30.707031 11.992188 7.351562 26.671876 6.40625 38.65625-1.710938 5.738282 11.238282 4.402344 25.765626-3.882812 39.328126zm215.164062 0h-56.121094v-150c0-71.679688-58.316406-130-130-130-19.558594 0-38.398437 4.292968-55.996094 12.753906-4.976562 2.394531-7.070312 8.371094-4.675781 13.347656s8.371094 7.066406 13.34375 4.675781c14.871094-7.148437 30.792969-10.777343 47.328125-10.777343 60.652344 0 110 49.347656 110 110v150h-35.65625c7.792969-11.683594 12.234375-26.058594 12.628906-41.8125.734376-29.289063-12.398437-58.355469-33.460937-74.054688-.316406-.234375-.648437-.453125-.992187-.652344-3.648438-2.097656-7.898438-2.644531-11.960938-1.550781-3.691406 1-6.832031 3.25-8.9375 6.375-3.792969-14.289063-12.210938-27.410156-24.957031-38.691406-13.847657-12.25-28.3125-18.414063-31.355469-19.632813-3.199219-1.339844-6.800781-1.582031-10.152344-.6875-8.40625 2.246094-13.414062 10.910156-11.167968 19.320313 2.839843 10.589843-6.621094 27.054687-16.632813 44.484375-11.414063 19.875-24.355469 42.398437-24.355469 65.664062 0 14.5 3.777344 28.636719 10.835938 41.238282h-33.835938v-150c0-16.539063 3.628906-32.464844 10.78125-47.332032 2.394532-4.976562.300782-10.953125-4.675781-13.347656s-10.953125-.300781-13.347656 4.675781c-8.464844 17.597657-12.757813 36.4375-12.757813 56.003907v150h-63.878906v-351.984376h40v30c0 5.523438 4.476562 10 10 10h280c5.519531 0 10-4.476562 10-10v-30h40zm0 0"/><path d="m90.003906 20c5.523438 0 10-4.476562 10-10s-4.476562-10-10-10h-.007812c-5.519532 0-9.996094 4.476562-9.996094 10s4.480469 10 10.003906 10zm0 0"/><path d="m142.628906 189.453125-.003906.007813c-4.242188 3.535156-4.8125 9.835937-1.277344 14.082031 1.976563 2.371093 4.820313 3.59375 7.6875 3.59375 2.257813 0 4.53125-.757813 6.398438-2.316407 4.242187-3.535156 4.816406-9.839843 1.28125-14.085937-3.539063-4.242187-9.84375-4.8125-14.085938-1.28125zm0 0"/></svg>