<svg height="512pt" viewBox="0 -46 512 512" width="512pt" xmlns="http://www.w3.org/2000/svg"><path d="m411.96875 40c-29.679688 0-54.398438 21.660156-59.167969 50h-70.851562c-5.527344 0-10 4.480469-10 10s4.472656 10 10 10h70.851562c4.769531 28.339844 29.488281 50 59.167969 50 33.089844 0 60.011719-26.921875 60.011719-60s-26.921875-60-60.011719-60zm0 100c-22.058594 0-40.007812-17.941406-40.007812-40s17.949218-40 40.007812-40c22.0625 0 40.011719 17.941406 40.011719 40s-17.949219 40-40.011719 40zm0 0"/><path d="m415.601562 0h-38.652343c-.539063 0-1.078125.0390625-1.609375.128906l-304.5 49.601563-44.511719-14.832031c-6.078125-2.027344-12.816406-1-18.019531 2.75-5.199219 3.75-8.308594 9.8125-8.308594 16.222656v92.257812c0 6.410156 3.109375 12.472656 8.308594 16.222656 3.441406 2.476563 7.5625 3.769532 11.710937 3.769532 2.121094 0 4.25-.339844 6.300781-1.019532l44.507813-14.832031 281.132813 46v20.742188c-22.800782 4.636719-40.011719 24.839843-40.011719 48.988281s17.210937 44.351562 40.011719 48.988281v45.011719c0 33.078125 26.917968 60 60.019531 60 33.078125 0 60-26.921875 60-60v-179.011719c4.21875-3.160156 8.191406-6.679687 11.847656-10.5 18.171875-18.917969 28.171875-43.949219 28.171875-70.488281 0-55.140625-43.25-100-96.398438-100zm-355.589843 132.789062-40.011719 13.339844v-92.25l40.011719 13.332032zm291.949219 161.5c-11.652344-4.128906-20.011719-15.25-20.011719-28.289062s8.359375-24.160156 20.011719-28.289062zm100.019531 65.710938c0 22.058594-17.941407 40-40.019531 40-22.0625 0-40-17.941406-40-40v-160.460938l2.019531.332032c.53125.089844 1.070312.128906 1.609375.128906h40.011718c12.363282 0 25.054688-2.398438 36.378907-7.429688zm17.417969-203.359375c-3.929688 4.097656-8.289063 7.757813-12.976563 10.878906-12.210937 8.160157-26.332031 12.480469-40.820313 12.480469h-39.203124l-12.839844-2.101562-283.546875-46.398438v-63l297.75-48.5h37.839843c42.128907 0 76.398438 35.890625 76.398438 80 0 21.351562-8.019531 41.460938-22.601562 56.640625-3.929688 4.097656 14.582031-15.179687 0 0zm0 0"/><path d="m241.960938 110c-5.523438 0-10.007813-4.476562-10.007813-10s4.472656-10 9.996094-10h.011719c5.523437 0 10 4.476562 10 10s-4.476563 10-10 10zm0 0"/></svg>