<svg height="512pt" viewBox="-46 0 512 512" width="512pt" xmlns="http://www.w3.org/2000/svg"><path d="m210 0c-115.789062 0-210 94.210938-210 210v222.210938c0 22.050781 17.941406 40 40 40h60v9.789062c0 16.539062 13.460938 30 30 30h10c11.03125 0 20-8.96875 20-20v-19.789062h100v19.789062c0 11.03125 8.96875 20 20 20h10c16.539062 0 30-13.460938 30-30v-9.789062h60c22.058594 0 40-17.949219 40-40v-222.210938c0-115.789062-94.210938-210-210-210zm-70 492h-10c-5.511719 0-10-4.488281-10-10v-10.019531h20v.230469l.011719 19.789062s0 0-.011719 0zm160-10c0 5.511719-4.488281 10-10 10h-10v-20.019531h20zm100-49.789062c0 11.019531-8.96875 20-20 20h-340c-11.03125 0-20-8.980469-20-20v-222.210938c0-104.769531 85.230469-190 190-190s190 85.230469 190 190zm0 0"/><path d="m120 431.964844h-50c-16.542969 0-30-13.460938-30-30 0-16.5625 13.457031-30.019532 30-30.019532h50c16.542969 0 30 13.457032 30 30 0 16.558594-13.457031 30.019532-30 30.019532zm-50-40.019532c-5.515625 0-10 4.484376-10 10 0 5.53125 4.484375 10.019532 10 10.019532h50c5.515625 0 10-4.488282 10-10 0-5.535156-4.484375-10.019532-10-10.019532zm0 0"/><path d="m370 411.953125h-150c-5.523438 0-10-4.476563-10-10 0-5.519531 4.476562-10 10-10h150c5.523438 0 10 4.480469 10 10 0 5.523437-4.476562 10-10 10zm0 0"/><path d="m180.019531 411.953125c-5.523437 0-10.003906-4.476563-10.003906-10 0-5.519531 4.472656-10 9.996094-10h.007812c5.523438 0 10 4.480469 10 10 0 5.523437-4.476562 10-10 10zm0 0"/><path d="m329.070312 146.128906c-.011718-.027344-.019531-.058594-.03125-.078125-.289062-.539062-.589843-1.082031-.878906-1.609375l-.011718-.011718c-12.238282-21.941407-30.410157-40.121094-52.320313-52.371094-.019531-.007813-.039063-.027344-.058594-.039063-.558593-.300781-1.121093-.609375-1.679687-.910156-.011719-.007813-.011719-.007813-.019532-.007813-19.03125-10.28125-40.789062-16.113281-63.890624-16.113281-23.101563 0-44.859376 5.832031-63.890626 16.113281-.007812 0-.007812 0-.019531.007813-.558593.300781-1.121093.609375-1.679687.910156-.011719 0-.011719.011719-.019532.019531-21.96875 12.269532-40.179687 30.511719-52.429687 52.511719-.25.460938-.511719.917969-.75 1.390625-10.339844 19.078125-16.210937 40.929688-16.210937 64.109375 0 23.097657 5.832031 44.878907 16.121093 63.917969.019531.0625.050781.132812.089844.191406.230469.441406.46875.890625.710937 1.320313.007813.019531.027344.039062.039063.070312 12.289063 22.070313 30.589844 40.359375 52.660156 52.628907.347657.199218.699219.390624 1.050781.589843.019532.019531.046876.03125.078126.03125 19.121093 10.398438 41.011718 16.300781 64.25 16.300781 23.199218 0 45.050781-5.871093 64.140624-16.242187.070313-.03125.128907-.058594.191407-.089844.347656-.199219.699219-.390625 1.046875-.589843.03125-.007813.050781-.019532.070312-.039063 22-12.25 40.242188-30.480469 52.519532-52.46875.011718-.023437.03125-.042969.03125-.050781.269531-.492188.550781-1 .820312-1.5.03125-.050782.050781-.101563.070312-.152344 10.28125-19.039062 16.109376-40.808594 16.109376-63.917969s-5.828126-44.878906-16.109376-63.921875zm-188.890624 155.132813c-7.949219-6.101563-15.070313-13.230469-21.179688-21.191407h21.179688zm0-41.191407h-33.550782c-5.949218-12.28125-9.789062-25.78125-11.007812-40.019531h44.558594zm0-60.019531h-44.558594c1.21875-14.242187 5.058594-27.742187 11.007812-40.03125h33.550782zm0-60.03125h-21.179688c6.109375-7.949219 13.230469-15.089843 21.179688-21.191406zm60 184.640625c-14.230469-1.21875-27.71875-5.058594-40-11.011718v-33.578126h40zm0-64.589844h-40v-40.019531h40zm0-60.019531h-40v-40.03125h40zm0-60.03125h-40v-33.570312c12.28125-5.960938 25.769531-9.800781 40-11.019531zm60 173.628907c-12.28125 5.953124-25.769532 9.792968-40 11.011718v-44.589844h40zm0-53.578126h-40v-40.019531h40zm0-60.019531h-40v-40.03125h40zm0-60.03125h-40v-44.589843c14.230468 1.21875 27.71875 5.058593 40 11.019531zm20-21.191406c7.949218 6.101563 15.070312 13.242187 21.179687 21.191406h-21.179687zm0 41.191406h33.550781c5.949219 12.289063 9.789062 25.789063 11.007812 40.03125h-44.558593zm0 141.242188v-21.191407h21.179687c-6.109375 7.960938-13.230469 15.089844-21.179687 21.191407zm33.550781-41.191407h-33.550781v-40.019531h44.558593c-1.21875 14.238281-5.058593 27.738281-11.007812 40.019531zm0 0"/></svg>