<?xml version="1.0" encoding="UTF-8" standalone="no"?>
<svg width="24px" height="62px" viewBox="0 0 24 62" version="1.1" xmlns="http://www.w3.org/2000/svg" xmlns:xlink="http://www.w3.org/1999/xlink">
    <!-- Generator: Sketch 43.1 (39012) - http://www.bohemiancoding.com/sketch -->
    <title>noun_855737_cc</title>
    <desc>Created with Sketch.</desc>
    <defs></defs>
    <g id="Page-1" stroke="none" stroke-width="1" fill="none" fill-rule="evenodd">
        <g id="noun_855737_cc" transform="translate(0.000000, -1.000000)" fill-rule="nonzero" fill="#FFFFFF">
            <g id="Group" transform="translate(0.000000, 0.637820)">
                <path d="M19,0.36216 C16.2385,0.36216 14,2.60076 14,5.36216 C14,8.12356 16.2385,10.36216 19,10.36216 C21.7614,10.36216 24,8.12356 24,5.36216 C24,2.60076 21.7614,0.36216 19,0.36216 Z M12.9062,11.36216 C9.3012,11.52401 5.4678,13.29992 2.25,15.76841 L1.9062,19.51841 C4.9464,18.32785 8.0659,18.3403 9,21.17466 C11.2745,28.06935 3.5032,40.1348 1.375,46.4559 C-4.3985,63.6052 9.457,65.5866 19.3438,58.5184 L19.7188,54.4559 C14.3398,56.1403 10.4843,54.0714 13.5938,45.1122 C15.0919,40.7906 27.6289,19.01485 18.9688,13.01841 C17.1554,11.76261 15.0693,11.26505 12.9062,11.36216 L12.9062,11.36216 Z" id="Shape"></path>
            </g>
        </g>
    </g>
</svg>