<?xml version="1.0" encoding="iso-8859-1"?>
<!-- Generator: Adobe Illustrator 19.0.0, SVG Export Plug-In . SVG Version: 6.00 Build 0)  -->
<svg version="1.1" id="Capa_1" xmlns="http://www.w3.org/2000/svg" xmlns:xlink="http://www.w3.org/1999/xlink" x="0px" y="0px"
	 viewBox="0 0 512 512" style="enable-background:new 0 0 512 512;" xml:space="preserve">
<g>
	<g>
		<path d="M423.385,167.385h-185.6c-27.96,0-50.708,22.748-50.708,50.708c0,15.473,12.588,28.062,28.062,28.062h208.246
			c21.717,0,39.385-17.668,39.385-39.385S445.101,167.385,423.385,167.385z M423.385,226.462H215.138
			c-4.615,0-8.369-3.754-8.369-8.369c0-17.102,13.914-31.015,31.015-31.015h185.6c10.858,0,19.692,8.834,19.692,19.692
			S434.243,226.462,423.385,226.462z"/>
	</g>
</g>
<g>
	<g>
		<path d="M449.644,108.308H270.109c-42.132,0-83.41,9.869-120.596,28.413c-8.136-8.433-19.335-13.289-31.36-13.289
			c-24.084,0-43.677,19.593-43.677,43.677c0,7.019,1.707,13.915,4.897,20.084c-39.659,39.583-66.256,90.674-75.584,145.934
			C1.275,347.982,0,363.221,0,378.417v15.429c0,5.438,4.408,9.846,9.846,9.846h492.308c5.438,0,9.846-4.408,9.846-9.846v-59.077
			V170.663C512,136.281,484.027,108.308,449.644,108.308z M118.154,143.124c4.65,0,9.08,1.321,12.855,3.722
			c-2.409,1.45-4.788,2.951-7.151,4.476c-0.13,0.084-0.26,0.167-0.39,0.251c-1.372,0.888-2.735,1.79-4.09,2.704
			c-0.4,0.269-0.8,0.537-1.197,0.807c-1.062,0.724-2.118,1.458-3.169,2.198c-0.633,0.444-1.266,0.886-1.895,1.336
			c-0.778,0.556-1.549,1.121-2.321,1.687c-0.855,0.624-1.709,1.247-2.557,1.883c-0.48,0.359-0.954,0.728-1.433,1.09
			c-1.099,0.835-2.197,1.671-3.284,2.523c-0.06,0.047-0.119,0.096-0.179,0.143c-2.862,2.248-5.689,4.549-8.467,6.92
			c-0.006,0.005-0.012,0.01-0.018,0.015c-0.456-1.862-0.688-3.793-0.688-5.769C94.17,153.884,104.928,143.124,118.154,143.124z
			 M492.308,285.538h-39.385c-5.438,0-9.846,4.408-9.846,9.846c0,5.438,4.408,9.846,9.846,9.846h39.385v19.692H137.846
			c-5.438,0-9.846,4.408-9.846,9.846s4.408,9.846,9.846,9.846h354.462V384H19.692v-5.583c0-1.613,0.02-3.226,0.05-4.839
			c0.01-0.505,0.026-1.011,0.038-1.517c0.029-1.126,0.063-2.253,0.106-3.379c0.022-0.565,0.045-1.131,0.071-1.696
			c0.051-1.122,0.11-2.245,0.176-3.366c0.03-0.509,0.057-1.018,0.09-1.526c0.099-1.534,0.21-3.067,0.337-4.598
			c0.006-0.076,0.011-0.152,0.017-0.227c0.135-1.608,0.289-3.213,0.454-4.817c0.05-0.482,0.105-0.964,0.159-1.446
			c0.124-1.136,0.254-2.271,0.393-3.405c0.068-0.551,0.138-1.101,0.209-1.651c0.058-0.445,0.122-0.889,0.182-1.334h56.796
			c5.438,0,9.846-4.408,9.846-9.846s-4.408-9.846-9.846-9.846H25.421c10.863-50.208,36.319-94.165,71.458-127.737
			c0.68-0.384,1.323-0.841,1.902-1.385c15.878-14.904,33.615-27.68,52.716-37.974c0.559-0.301,1.079-0.658,1.563-1.054
			C188.116,138.328,228.002,128,270.109,128h179.535c23.524,0,42.663,19.139,42.663,42.663V285.538z"/>
	</g>
</g>
<g>
	<g>
		<path d="M117.967,332.849c-0.128-0.63-0.325-1.25-0.571-1.841c-0.246-0.601-0.542-1.172-0.896-1.703
			c-0.364-0.542-0.778-1.044-1.231-1.497c-0.453-0.453-0.955-0.866-1.497-1.221c-0.532-0.354-1.103-0.66-1.694-0.906
			c-0.601-0.246-1.221-0.443-1.851-0.561c-1.27-0.256-2.57-0.256-3.84,0c-0.63,0.118-1.25,0.315-1.841,0.561
			c-0.601,0.246-1.172,0.551-1.703,0.906c-0.542,0.354-1.044,0.768-1.497,1.221c-0.453,0.453-0.866,0.955-1.221,1.497
			c-0.354,0.532-0.66,1.103-0.906,1.703c-0.246,0.591-0.433,1.211-0.561,1.841c-0.128,0.63-0.197,1.28-0.197,1.92
			s0.069,1.29,0.197,1.92c0.128,0.63,0.315,1.25,0.561,1.841c0.246,0.601,0.551,1.172,0.906,1.703
			c0.354,0.542,0.768,1.044,1.221,1.497c0.453,0.453,0.955,0.866,1.497,1.221c0.532,0.354,1.103,0.66,1.703,0.906
			c0.591,0.246,1.211,0.443,1.841,0.561c0.63,0.128,1.28,0.197,1.92,0.197c0.64,0,1.29-0.069,1.92-0.197
			c0.63-0.118,1.25-0.315,1.851-0.561c0.591-0.246,1.162-0.551,1.694-0.906c0.542-0.354,1.044-0.768,1.497-1.221
			s0.866-0.955,1.231-1.497c0.354-0.532,0.65-1.103,0.896-1.703c0.246-0.591,0.443-1.211,0.571-1.841
			c0.128-0.63,0.187-1.28,0.187-1.92S118.095,333.479,117.967,332.849z"/>
	</g>
</g>
<g>
	<g>
		<path d="M433.044,293.465c-0.128-0.63-0.325-1.25-0.571-1.841c-0.246-0.601-0.551-1.172-0.906-1.703
			c-0.354-0.542-0.768-1.044-1.221-1.497c-0.453-0.453-0.955-0.867-1.497-1.221c-0.532-0.354-1.103-0.66-1.703-0.906
			c-0.591-0.246-1.211-0.443-1.841-0.561c-1.27-0.256-2.57-0.256-3.84,0c-0.63,0.118-1.25,0.315-1.841,0.561
			c-0.601,0.246-1.172,0.551-1.703,0.906c-0.542,0.354-1.044,0.768-1.497,1.221c-0.453,0.453-0.866,0.955-1.221,1.497
			c-0.354,0.532-0.66,1.103-0.906,1.703c-0.246,0.591-0.443,1.211-0.561,1.841c-0.128,0.63-0.197,1.28-0.197,1.92
			c0,0.64,0.069,1.29,0.197,1.92c0.118,0.63,0.315,1.25,0.561,1.851c0.246,0.591,0.551,1.162,0.906,1.694
			c0.354,0.542,0.768,1.044,1.221,1.497c0.453,0.453,0.955,0.867,1.497,1.221c0.532,0.354,1.103,0.66,1.703,0.906
			c0.591,0.246,1.211,0.443,1.841,0.561c0.63,0.128,1.28,0.197,1.92,0.197s1.29-0.069,1.92-0.197c0.63-0.118,1.25-0.315,1.841-0.561
			c0.601-0.246,1.172-0.551,1.703-0.906c0.542-0.354,1.044-0.768,1.497-1.221c0.453-0.453,0.866-0.955,1.221-1.497
			c0.354-0.532,0.66-1.103,0.906-1.694c0.246-0.601,0.443-1.221,0.571-1.851c0.128-0.63,0.187-1.28,0.187-1.92
			S433.172,294.095,433.044,293.465z"/>
	</g>
</g>
<g>
</g>
<g>
</g>
<g>
</g>
<g>
</g>
<g>
</g>
<g>
</g>
<g>
</g>
<g>
</g>
<g>
</g>
<g>
</g>
<g>
</g>
<g>
</g>
<g>
</g>
<g>
</g>
<g>
</g>
</svg>
