<svg height="512pt" viewBox="0 -66 512 512" width="512pt" xmlns="http://www.w3.org/2000/svg"><path d="m452 250c-5.519531 0-10 4.480469-10 10s4.480469 10 10 10 10-4.480469 10-10-4.480469-10-10-10zm0 0"/><path d="m452 290c-5.519531 0-10 4.480469-10 10s4.480469 10 10 10 10-4.480469 10-10-4.480469-10-10-10zm0 0"/><path d="m412 250c-5.519531 0-10 4.480469-10 10s4.480469 10 10 10 10-4.480469 10-10-4.480469-10-10-10zm0 0"/><path d="m412 290c-5.519531 0-10 4.480469-10 10s4.480469 10 10 10 10-4.480469 10-10-4.480469-10-10-10zm0 0"/><path d="m322 50h-272c-5.523438 0-10 4.476562-10 10v240c0 5.523438 4.476562 10 10 10h272c5.523438 0 10-4.476562 10-10v-240c0-5.523438-4.476562-10-10-10zm-10 240h-252v-220h252zm0 0"/><path d="m482 0h-452c-16.542969 0-30 13.457031-30 30v300c0 16.542969 13.457031 30 30 30h11.714844c4.125 11.640625 15.246094 20 28.285156 20h20c13.039062 0 24.160156-8.359375 28.285156-20h275.429688c4.125 11.640625 15.246094 20 28.285156 20h20c13.039062 0 24.160156-8.359375 28.285156-20h11.714844c16.542969 0 30-13.457031 30-30v-300c0-16.542969-13.457031-30-30-30zm-372 340c-5.523438 0-10 4.476562-10 10 0 5.515625-4.484375 10-10 10h-20c-5.515625 0-10-4.484375-10-10 0-5.523438-4.476562-10-10-10h-20c-5.515625 0-10-4.484375-10-10v-300c0-5.515625 4.484375-10 10-10h322v320zm382-10c0 5.515625-4.484375 10-10 10h-20c-5.523438 0-10 4.476562-10 10 0 5.515625-4.484375 10-10 10h-20c-5.515625 0-10-4.484375-10-10 0-5.523438-4.476562-10-10-10h-30v-320h110c5.515625 0 10 4.484375 10 10zm0 0"/><path d="m432 50c-22.054688 0-40 17.945312-40 40s17.945312 40 40 40 40-17.945312 40-40-17.945312-40-40-40zm0 60c-11.027344 0-20-8.972656-20-20s8.972656-20 20-20 20 8.972656 20 20-8.972656 20-20 20zm0 0"/><path d="m432 150c-22.054688 0-40 17.945312-40 40s17.945312 40 40 40 40-17.945312 40-40-17.945312-40-40-40zm0 60c-11.027344 0-20-8.972656-20-20s8.972656-20 20-20 20 8.972656 20 20-8.972656 20-20 20zm0 0"/><path d="m100 110c0 5.523438-4.476562 10-10 10s-10-4.476562-10-10 4.476562-10 10-10 10 4.476562 10 10zm0 0"/><path d="m90 260c5.523438 0 10-4.476562 10-10v-95c0-5.523438-4.476562-10-10-10s-10 4.476562-10 10v95c0 5.523438 4.476562 10 10 10zm0 0"/></svg>