<?xml version="1.0" encoding="UTF-8" standalone="no"?>
<svg width="82px" height="82px" viewBox="0 0 82 82" version="1.1" xmlns="http://www.w3.org/2000/svg" xmlns:xlink="http://www.w3.org/1999/xlink">
    <!-- Generator: Sketch 43.1 (39012) - http://www.bohemiancoding.com/sketch -->
    <title>noun_449439_cc</title>
    <desc>Created with Sketch.</desc>
    <defs></defs>
    <g id="Page-1" stroke="none" stroke-width="1" fill="none" fill-rule="evenodd">
        <g id="noun_449439_cc" fill-rule="nonzero" fill="#000000">
            <path d="M73.23,16.159 C71.176,13.519 68.797,11.141 66.162,9.086 C58.974,3.485 50.369,0.526 41.272,0.526 C18.928,0.526 0.749,18.703 0.749,41.049 C0.749,50.155 3.706,58.76 9.308,65.94 C11.375,68.582 13.752,70.965 16.376,73.011 C23.556,78.607 32.166,81.565 41.272,81.565 C63.613,81.565 81.792,63.391 81.792,41.05 C81.792,31.944 78.833,23.336 73.23,16.159 Z M41.272,68.327 C36.285,68.327 31.48,66.994 27.25,64.445 L64.671,27.028 C67.209,31.259 68.544,36.063 68.544,41.05 C68.544,56.089 56.31,68.327 41.272,68.327 Z M41.272,13.769 C46.257,13.769 51.061,15.106 55.288,17.655 L17.876,55.069 C15.329,50.838 13.992,46.036 13.992,41.049 C13.992,26.008 26.227,13.769 41.272,13.769 Z" id="Shape"></path>
        </g>
    </g>
</svg>