<?xml version="1.0" encoding="iso-8859-1"?>
<!-- Generator: Adobe Illustrator 19.0.0, SVG Export Plug-In . SVG Version: 6.00 Build 0)  -->
<svg version="1.1" id="Capa_1" xmlns="http://www.w3.org/2000/svg" xmlns:xlink="http://www.w3.org/1999/xlink" x="0px" y="0px"
	 viewBox="0 0 512 512" style="enable-background:new 0 0 512 512;" xml:space="preserve">
<g>
	<g>
		<path d="M480.492,0H31.508C14.134,0,0,14.134,0,31.508v448.985C0,497.866,14.134,512,31.508,512h448.985
			C497.866,512,512,497.866,512,480.492V31.508C512,14.134,497.866,0,480.492,0z M480.493,492.307H31.508
			c-6.515,0-11.815-5.3-11.815-11.815V31.508c0-6.515,5.3-11.815,11.815-11.815h448.985c6.515,0,11.815,5.3,11.815,11.815v448.984h0
			C492.308,487.007,487.008,492.307,480.493,492.307z"/>
	</g>
</g>
<g>
	<g>
		<path d="M462.769,147.692H49.231c-5.437,0-9.846,4.408-9.846,9.846v305.231c0,5.438,4.409,9.846,9.846,9.846h413.538
			c5.437,0,9.846-4.408,9.846-9.846V157.538C472.615,152.1,468.206,147.692,462.769,147.692z M452.923,452.923H59.077v-19.692
			h39.385c5.437,0,9.846-4.408,9.846-9.846s-4.409-9.846-9.846-9.846H59.077V167.385h393.846V452.923z"/>
	</g>
</g>
<g>
	<g>
		<path d="M194.037,239.193c-1.83-1.831-4.371-2.885-6.96-2.885c-2.589,0-5.13,1.054-6.961,2.885s-2.885,4.372-2.885,6.961
			s1.053,5.13,2.885,6.961c1.832,1.831,4.372,2.885,6.961,2.885c2.589,0,5.13-1.054,6.96-2.885c1.831-1.831,2.886-4.372,2.886-6.961
			S195.87,241.024,194.037,239.193z"/>
	</g>
</g>
<g>
	<g>
		<path d="M393.846,196.923H118.154c-5.437,0-9.846,4.408-9.846,9.846v39.385c0,5.438,4.409,9.846,9.846,9.846h39.385
			c5.437,0,9.846-4.408,9.846-9.846s-4.409-9.846-9.846-9.846H128v-19.692h256v19.692H216.615c-5.437,0-9.846,4.408-9.846,9.846
			s4.409,9.846,9.846,9.846h177.231c5.437,0,9.846-4.408,9.846-9.846v-39.385C403.692,201.331,399.283,196.923,393.846,196.923z"/>
	</g>
</g>
<g>
	<g>
		<path d="M88.615,44.308c-21.717,0-39.385,17.668-39.385,39.385s17.668,39.385,39.385,39.385c21.717,0,39.385-17.669,39.385-39.386
			C128,61.975,110.332,44.308,88.615,44.308z M78.769,100.72c-5.876-3.412-9.846-9.759-9.846-17.028
			c0-7.269,3.97-13.616,9.846-17.028V100.72z M98.462,100.72V66.664c5.876,3.412,9.846,9.759,9.846,17.028
			C108.308,90.961,104.338,97.309,98.462,100.72z"/>
	</g>
</g>
<g>
	<g>
		<path d="M187.077,44.308c-10.608,0-20.244,4.224-27.333,11.068c-0.174,0.152-0.351,0.3-0.517,0.467
			c-0.167,0.167-0.318,0.346-0.472,0.522c-6.841,7.088-11.063,16.722-11.063,27.328c0,21.717,17.668,39.385,39.385,39.385
			c10.608,0,20.243-4.223,27.331-11.067c0.175-0.152,0.352-0.301,0.518-0.468c0.167-0.167,0.318-0.346,0.472-0.522
			c6.842-7.088,11.064-16.722,11.064-27.328C226.462,61.976,208.794,44.308,187.077,44.308z M187.077,103.385
			c-10.858,0-19.692-8.834-19.692-19.692c0-1.759,0.254-3.456,0.688-5.08l24.083,24.084
			C190.533,103.131,188.835,103.385,187.077,103.385z M206.081,88.772l-24.083-24.084c1.623-0.434,3.32-0.688,5.079-0.688
			c10.858,0,19.692,8.834,19.692,19.692C206.769,85.451,206.515,87.148,206.081,88.772z"/>
	</g>
</g>
<g>
	<g>
		<path d="M134.96,416.423c-1.83-1.831-4.371-2.885-6.96-2.885c-2.6,0-5.13,1.054-6.961,2.885s-2.885,4.372-2.885,6.961
			c0,2.59,1.053,5.13,2.885,6.961c1.832,1.831,4.372,2.885,6.961,2.885s5.13-1.054,6.96-2.885c1.831-1.831,2.886-4.372,2.886-6.961
			S136.793,418.255,134.96,416.423z"/>
	</g>
</g>
<g>
</g>
<g>
</g>
<g>
</g>
<g>
</g>
<g>
</g>
<g>
</g>
<g>
</g>
<g>
</g>
<g>
</g>
<g>
</g>
<g>
</g>
<g>
</g>
<g>
</g>
<g>
</g>
<g>
</g>
</svg>
