<svg height="512pt" viewBox="-49 0 511 512" width="512pt" xmlns="http://www.w3.org/2000/svg"><path d="m206.5 362c-86.019531 0-156-69.980469-156-156s69.980469-156 156-156 156 69.980469 156 156-69.980469 156-156 156zm0-292c-74.992188 0-136 61.011719-136 136s61.007812 136 136 136 136-61.011719 136-136-61.007812-136-136-136zm0 0"/><path d="m206.5 312c-58.449219 0-106-47.550781-106-106s47.550781-106 106-106 106 47.550781 106 106-47.550781 106-106 106zm0-192c-47.421875 0-86 38.578125-86 86s38.578125 86 86 86 86-38.578125 86-86-38.578125-86-86-86zm0 0"/><path d="m216.5 151h-40c-5.519531 0-10 4.480469-10 10v90c0 5.519531 4.480469 10 10 10s10-4.480469 10-10v-35h30c16.539062 0 30-13.460938 30-30v-5c0-16.539062-13.460938-30-30-30zm10 35c0 5.511719-4.488281 10-10 10h-30v-25h30c5.511719 0 10 4.488281 10 10zm0 0"/><path d="m206.5 0c-113.589844 0-206 92.589844-206 206.398438 0 104.339843 117.71875 221.703124 188.058594 291.820312 3.792968 3.769531 7.421875 7.390625 10.863281 10.839844.457031.460937.949219.871094 1.488281 1.230468.128906.089844.269532.179688.410156.261719.550782.339844 1.128907.621094 1.738282.839844.160156.058594.3125.109375.472656.160156.9375.289063 1.929688.449219 2.96875.449219s2.03125-.160156 2.96875-.449219c.160156-.050781.3125-.101562.472656-.160156.609375-.21875 1.1875-.5 1.738282-.839844.140624-.082031.28125-.171875.410156-.261719.539062-.359374 1.03125-.769531 1.488281-1.230468 4.492187-4.488282 9.292969-9.257813 14.34375-14.277344 69.039063-68.542969 184.578125-183.25 184.578125-288.382812 0-113.808594-92.410156-206.398438-206-206.398438zm10 477.941406v-45.082031c0-5.519531-4.480469-10-10-10s-10 4.480469-10 10v45.039063c-32.910156-32.859376-75.679688-76.207032-110.839844-122.886719-43.238281-57.421875-65.160156-107.421875-65.160156-148.613281 0-102.777344 83.441406-186.398438 186-186.398438s186 83.621094 186 186.398438c0 95.523437-108.910156 204.910156-176 271.542968zm0 0"/><path d="m206.519531 402c-5.523437 0-10.003906-4.476562-10.003906-10s4.472656-10 9.996094-10h.007812c5.523438 0 10 4.476562 10 10s-4.476562 10-10 10zm0 0"/></svg>