<?xml version="1.0" encoding="iso-8859-1"?>
<!-- Generator: Adobe Illustrator 19.0.0, SVG Export Plug-In . SVG Version: 6.00 Build 0)  -->
<svg version="1.1" id="Capa_1" xmlns="http://www.w3.org/2000/svg" xmlns:xlink="http://www.w3.org/1999/xlink" x="0px" y="0px"
	 viewBox="0 0 512 512" style="enable-background:new 0 0 512 512;" xml:space="preserve">
<g>
	<g>
		<path d="M438.5,90h-100V75H361c4.142,0,7.5-3.357,7.5-7.5S365.142,60,361,60h-60c-4.142,0-7.5,3.357-7.5,7.5V90h-15V22.5
			C278.5,10.094,268.407,0,256,0c-12.407,0-22.5,10.094-22.5,22.5V90h-15V67.5c0-4.143-3.358-7.5-7.5-7.5h-60
			c-4.142,0-7.5,3.357-7.5,7.5s3.358,7.5,7.5,7.5h22.5v15h-100c-4.142,0-7.5,3.357-7.5,7.5c0,71.922,56.536,130.883,127.5,134.788
			V474.5c0,20.678,16.822,37.5,37.5,37.5h50c20.678,0,37.5-16.822,37.5-37.5V232.288C389.464,228.383,446,169.422,446,97.5
			C446,93.357,442.642,90,438.5,90z M308.5,75h15v15h-15V75z M248.5,22.5c0-4.136,3.364-7.5,7.5-7.5s7.5,3.364,7.5,7.5V30h-15V22.5z
			 M248.5,45h15v45h-15V45z M188.5,75h15v15h-15V75z M311,217.5h-80c-4.142,0-7.5,3.357-7.5,7.5s3.358,7.5,7.5,7.5h72.5v242
			c0,12.406-10.093,22.5-22.5,22.5h-50c-12.407,0-22.5-10.094-22.5-22.5V225c0-4.143-3.358-7.5-7.5-7.5
			c-63.648,0-115.882-49.813-119.768-112.5h349.536C426.882,167.687,374.648,217.5,311,217.5z"/>
	</g>
</g>
<g>
</g>
<g>
</g>
<g>
</g>
<g>
</g>
<g>
</g>
<g>
</g>
<g>
</g>
<g>
</g>
<g>
</g>
<g>
</g>
<g>
</g>
<g>
</g>
<g>
</g>
<g>
</g>
<g>
</g>
</svg>
