<svg height="512pt" viewBox="0 -56 512 512" width="512pt" xmlns="http://www.w3.org/2000/svg"><g fill-rule="evenodd"><path d="m365.671875 107.046875h-67.558594v-76.445313c0-5.847656 4.757813-10.601562 10.605469-10.601562 5.519531 0 10-4.476562 10-10s-4.480469-10-10-10c-16.875 0-30.605469 13.726562-30.605469 30.601562v26.757813h-64.832031v-26.757813c0-5.847656 4.757812-10.601562 10.601562-10.601562 5.523438 0 10-4.476562 10-10s-4.476562-10-10-10c-16.871093 0-30.601562 13.726562-30.601562 30.601562v76.445313h-46.953125c-80.683594 0-146.328125 65.640625-146.328125 146.328125s65.644531 146.328125 146.328125 146.328125h69.671875c5.523438 0 10-4.476563 10-10 0-5.519531-4.476562-10-10-10h-69.671875c-69.65625.003906-126.328125-56.667969-126.328125-126.328125 0-69.65625 56.671875-126.328125 126.328125-126.328125h46.953125v43.824219c0 5.523437 4.480469 10 10 10 5.523438 0 10-4.476563 10-10v-43.824219h64.832031v43.824219c0 5.523437 4.480469 10 10 10 5.523438 0 10-4.476563 10-10v-43.824219h67.558594c69.65625 0 126.328125 56.667969 126.328125 126.328125s-56.671875 126.328125-126.328125 126.328125h-69.671875c-5.523438 0-10 4.480469-10 10 0 5.523437 4.476562 10 10 10h69.671875c80.683594 0 146.328125-65.640625 146.328125-146.328125s-65.644531-146.328125-146.328125-146.328125zm-152.390625 0v-29.683594h64.832031v29.683594zm0 0"/><path d="m80.285156 232.195312c3.988282 0 10.351563 4.773438 15.964844 8.984376 8.113281 6.082031 17.308594 12.980468 27.964844 12.980468 10.652344 0 19.851562-6.898437 27.964844-12.980468 5.613281-4.210938 11.976562-8.984376 15.964843-8.984376s10.347657 4.773438 15.960938 8.980469c8.113281 6.085938 17.3125 12.984375 27.964843 12.984375 10.65625 0 19.851563-6.898437 27.964844-12.984375 5.613282-4.207031 11.976563-8.980469 15.964844-8.980469s10.351562 4.773438 15.964844 8.980469c8.113281 6.085938 17.308594 12.984375 27.964844 12.984375s19.851562-6.898437 27.964843-12.984375c5.613281-4.207031 11.976563-8.980469 15.964844-8.980469s10.351563 4.773438 15.964844 8.980469c8.113281 6.085938 17.308593 12.984375 27.960937 12.984375 10.65625 0 19.855469-6.898437 27.96875-12.984375 5.609375-4.207031 11.976563-8.980469 15.964844-8.980469 5.519531 0 10-4.476562 10-10 0-5.523437-4.480469-10-10-10-10.65625 0-19.855469 6.898438-27.964844 12.980469-5.613281 4.210938-11.980468 8.984375-15.96875 8.984375-3.984375 0-10.347656-4.773437-15.960937-8.984375-8.113281-6.082031-17.3125-12.980469-27.964844-12.980469-10.65625 0-19.851563 6.898438-27.964844 12.980469-5.613281 4.210938-11.976562 8.984375-15.964843 8.984375-3.988282 0-10.351563-4.773437-15.964844-8.984375-8.113282-6.082031-17.308594-12.980469-27.964844-12.980469-10.652344 0-19.851562 6.898438-27.964844 12.980469-5.613281 4.210938-11.976562 8.980469-15.964844 8.980469-3.984374 0-10.351562-4.769531-15.964843-8.980469-8.113281-6.085937-17.308594-12.980469-27.960938-12.980469-10.65625 0-19.851562 6.894532-27.964843 12.980469-5.613282 4.210938-11.976563 8.980469-15.964844 8.980469-3.988282 0-10.351563-4.769531-15.964844-8.980469-8.113281-6.085937-17.3125-12.980469-27.964844-12.980469-5.523437 0-10 4.476563-10 10 0 5.523438 4.476563 10 10 10zm0 0"/><path d="m327.894531 305.8125c5.613281-4.210938 11.976563-8.984375 15.964844-8.984375s10.351563 4.773437 15.960937 8.984375c8.113282 6.082031 17.3125 12.980469 27.964844 12.980469 10.65625 0 19.851563-6.898438 27.964844-12.980469 5.613281-4.210938 11.976562-8.984375 15.964844-8.984375 5.523437 0 10-4.476563 10-10s-4.476563-10-10-10c-10.652344 0-19.851563 6.898437-27.964844 12.984375-5.613281 4.207031-11.976562 8.980469-15.964844 8.980469-3.988281 0-10.351562-4.773438-15.964844-8.980469-8.109374-6.085938-17.308593-12.984375-27.960937-12.984375-10.65625 0-19.851563 6.898437-27.964844 12.984375-5.613281 4.207031-11.980469 8.980469-15.964843 8.980469-3.988282 0-10.351563-4.773438-15.964844-8.980469-8.113282-6.085938-17.3125-12.984375-27.964844-12.984375-10.65625 0-19.851562 6.898437-27.964844 12.984375-5.613281 4.207031-11.976562 8.980469-15.964844 8.980469-3.988281 0-10.351562-4.773438-15.964843-8.984375-8.113281-6.082032-17.308594-12.980469-27.964844-12.980469-10.652344 0-19.851563 6.898437-27.960937 12.980469-5.617188 4.210937-11.980469 8.984375-15.964844 8.984375-3.988282 0-10.351563-4.773438-15.96875-8.984375-8.109375-6.082032-17.308594-12.980469-27.960938-12.980469-5.523437 0-10 4.476563-10 10s4.476563 10 10 10c3.988282 0 10.347656 4.773437 15.964844 8.980469 8.113281 6.085937 17.308594 12.984375 27.964844 12.984375 10.652344 0 19.847656-6.898438 27.960937-12.984375 5.613281-4.207032 11.976563-8.980469 15.964844-8.980469s10.351563 4.769531 15.964844 8.980469c8.113281 6.085937 17.308593 12.980468 27.964843 12.980468s19.851563-6.894531 27.964844-12.980468c5.613282-4.210938 11.976563-8.980469 15.964844-8.980469s10.351562 4.769531 15.964844 8.980469c8.113281 6.085937 17.308594 12.980468 27.964844 12.980468 10.652343.003907 19.847656-6.894531 27.964843-12.976562zm0 0"/><path d="m256 379.707031c-5.507812 0-10 4.488281-10 10 0 5.507813 4.492188 10 10 10s10-4.492187 10-10c0-5.511719-4.492188-10-10-10zm0 0"/></g></svg>