<svg height="512pt" viewBox="0 0 512.00051 512" width="512pt" xmlns="http://www.w3.org/2000/svg"><path d="m311.007812 411.664062c-5.519531 0-10-4.472656-10-9.992187s4.46875-9.992187 9.988282-9.992187h.011718c5.519532 0 9.992188 4.472656 9.992188 9.992187s-4.472656 9.992187-9.992188 9.992187zm0 0"/><path d="m511.539062 183.042969c-2.730468-18.714844-20.335937-33.574219-37.816406-37.664063-16.195312-3.785156-33.015625-5.84375-49.394531-8.742187-48.925781-8.664063-97.863281-17.328125-146.789063-25.992188-3.847656-.679687-7.683593-1.140625-11.519531-1.410156v-30.527344c17.214844-4.449219 29.976563-20.117187 29.976563-38.714843 0-22.054688-17.925782-39.992188-39.972656-39.992188-22.042969 0-39.972657 17.9375-39.972657 39.992188 0 5.515624 4.476563 9.992187 9.996094 9.992187 5.515625 0 9.992187-4.476563 9.992187-9.992187 0-11.03125 8.964844-20.003907 19.984376-20.003907 11.023437 0 19.988281 8.972657 19.988281 20.003907 0 11.023437-8.964844 19.996093-19.988281 19.996093-5.515626 0-9.992188 4.476563-9.992188 9.992188v39.292969c-21.207031 1.460937-42.339844 6.828124-63.316406 10.542968-46.617188 8.253906-93.324219 16.121094-139.882813 24.765625-26.273437 4.886719-53.59375 27.839844-38.535156 57.300781 14.121094 27.621094 40.3125 25.070313 66.855469 25.070313v254.714844c0 16.527343 13.449218 29.980469 29.980468 29.980469h309.785157c16.527343 0 29.980469-13.453126 29.980469-29.980469v-254.714844h30.976562c24.0625 0 43.390625-18.328125 39.664062-43.910156zm-90.628906 208.636719h-69.949218c-5.519532 0-9.996094 4.476562-9.996094 9.992187 0 5.519531 4.476562 9.996094 9.996094 9.996094h69.949218v70c0 5.507812-4.484375 9.992187-9.992187 9.992187h-309.785157c-5.507812 0-9.996093-4.484375-9.996093-9.992187v-70h179.878906c5.515625 0 9.992187-4.476563 9.992187-9.996094 0-5.515625-4.476562-9.992187-9.992187-9.992187h-179.878906v-190.886719c0-5.507813 4.488281-9.996094 9.996093-9.996094h10.429688c5.96875-.316406 12.054688 0 18.027344 0h258.875c4.105468 0 8.324218-.269531 12.417968 0h10.035157c5.507812 0 9.992187 4.488281 9.992187 9.996094zm64.285156-187.28125c-13.410156 4.816406-30.289062 2.878906-44.296874 2.570312v-6.175781c0-16.53125-13.453126-29.980469-29.980469-29.980469h-309.785157c-16.53125 0-29.980468 13.449219-29.980468 29.980469v6.175781c-9.722656.207031-20.136719.988281-29.789063 0-16.03125-1.648438-27.222656-19.816406-15.800781-33.46875 8.636719-10.332031 30.449219-10.953125 42.960938-13.171875 46.386718-8.210937 92.777343-16.425781 139.164062-24.640625 24.582031-4.359375 45.71875-9.023438 70.460938-4.636719 44.71875 7.914063 89.449218 15.839844 134.167968 23.753907 21.714844 3.847656 102.820313 8.035156 72.878906 49.59375zm0 0"/></svg>