<?xml version="1.0"?>
<svg xmlns="http://www.w3.org/2000/svg" width="512" height="512" viewBox="0 0 128 128"><path d="M126.25,11.5H113.667a1.75,1.75,0,0,0-1.75,1.75V23.832H65a7.756,7.756,0,0,0-7.664,6.659H49V28.922a11.763,11.763,0,0,0-11.75-11.75H24.333a11.709,11.709,0,0,0-8.25,3.4V13.25a1.75,1.75,0,0,0-1.75-1.75H1.75A1.75,1.75,0,0,0,0,13.25v101.5a1.75,1.75,0,0,0,1.75,1.75H14.333a1.75,1.75,0,0,0,1.75-1.75v-3.922h95.834v3.922a1.75,1.75,0,0,0,1.75,1.75H126.25a1.75,1.75,0,0,0,1.75-1.75V13.25A1.75,1.75,0,0,0,126.25,11.5ZM16.083,98.32V90.449H57.25V98.32Zm95.834-52.958v5.509H16.083V45.362ZM57.336,86.949H49v-1.57a11.763,11.763,0,0,0-11.75-11.75H24.333a11.709,11.709,0,0,0-8.25,3.4V54.371h95.834V80.289H65A7.756,7.756,0,0,0,57.336,86.949Zm-41.253-1.57a8.26,8.26,0,0,1,8.25-8.25H37.25a8.26,8.26,0,0,1,8.25,8.25v1.57H16.083Zm44.667,2.66A4.255,4.255,0,0,1,65,83.789h46.917V98.32H60.75Zm0-56.457A4.254,4.254,0,0,1,65,27.332h46.917v14.53H60.75Zm-3.5,10.28H16.083V33.991H57.25ZM24.333,20.672H37.25a8.259,8.259,0,0,1,8.25,8.25v1.569H16.083V28.922A8.259,8.259,0,0,1,24.333,20.672ZM12.583,113H3.5V15h9.083Zm3.5-5.672V101.82h95.834v5.508ZM124.5,113h-9.083V15H124.5Z"/></svg>
