<svg id="Capa_1" enable-background="new 0 0 512 512" height="512" viewBox="0 0 512 512" width="512" xmlns="http://www.w3.org/2000/svg"><path d="m482 0c-16.542 0-30 13.458-30 30v15h-392v-15c0-16.542-13.458-30-30-30s-30 13.458-30 30v474.5c0 4.142 3.358 7.5 7.5 7.5h45c4.142 0 7.5-3.358 7.5-7.5v-106c0-4.142-3.358-7.5-7.5-7.5s-7.5 3.358-7.5 7.5v98.5h-30v-121h482v121h-30v-98.5c0-4.142-3.358-7.5-7.5-7.5s-7.5 3.358-7.5 7.5v106c0 4.142 3.358 7.5 7.5 7.5h45c4.142 0 7.5-3.358 7.5-7.5v-474.5c0-16.542-13.458-30-30-30zm-379.6 241h-19.9c-8.436 0-16.228 2.801-22.5 7.521v-143.521h42.4zm-42.4 37.5c0-12.407 10.093-22.5 22.5-22.5h19.9v60h-42.4zm57.4-173.5h15v211h-15zm72.4 136h-42.4v-136h42.4zm-42.4 15h42.4v60h-42.4zm57.4-151h15v211h-15zm72.4 136h-42.4v-136h42.4zm-42.4 15h42.4v60h-42.4zm57.4-151h15v211h-15zm72.4 136h-42.4v-136h42.4zm-42.4 15h42.4v60h-42.4zm57.4-151h15v211h-15zm30 0h42.4v143.521c-6.272-4.719-14.064-7.521-22.5-7.521h-19.9zm0 151h19.9c12.407 0 22.5 10.093 22.5 22.5v37.5h-42.4zm42.4-196v30h-392v-30zm-437 301v-331c0-8.271 6.729-15 15-15s15 6.729 15 15v293.5c0 4.142 3.358 7.5 7.5 7.5h407c4.142 0 7.5-3.358 7.5-7.5v-293.5c0-8.271 6.729-15 15-15s15 6.729 15 15v331z"/></svg>