<?xml version="1.0" encoding="iso-8859-1"?>
<!-- Generator: Adobe Illustrator 19.0.0, SVG Export Plug-In . SVG Version: 6.00 Build 0)  -->
<svg version="1.1" id="Capa_1" xmlns="http://www.w3.org/2000/svg" xmlns:xlink="http://www.w3.org/1999/xlink" x="0px" y="0px"
	 viewBox="0 0 512 512" style="enable-background:new 0 0 512 512;" xml:space="preserve">
<g>
	<g>
		<path d="M0.998,0.499V334.69c-0.647,3.951-0.998,8-0.998,12.132h0.998v164.678H30.94v-29.942h269.474v29.942H512V0.499H0.998z
			 M300.413,451.618H30.94v-59.883h269.474V451.618z M300.413,361.793H30.94V337.42c4.335-20.265,22.374-35.51,43.914-35.51h180.647
			c24.765,0,44.912,20.148,44.912,44.912V361.793z M89.825,271.969c0-24.765,20.148-44.912,44.912-44.912h60.881
			c24.765,0,44.912,20.148,44.912,44.912H89.825z M300.413,286.98c-8.708-6.552-18.885-11.252-29.942-13.506v-1.506
			c0-41.274-33.579-74.854-74.854-74.854h-60.881c-41.274,0-74.854,33.579-74.854,74.854v1.506
			c-10.64,2.169-20.457,6.613-28.943,12.784V30.441h269.474V286.98z M482.058,481.559H330.355v-89.825h151.704V481.559z
			 M482.058,361.793H330.355v-89.825h151.704V361.793z M482.058,242.027H330.355V120.265h151.704V242.027z M482.058,90.324H330.355
			V30.441h151.704V90.324z"/>
	</g>
</g>
<g>
	<g>
		<rect x="376.265" y="301.91" width="59.883" height="29.942"/>
	</g>
</g>
<g>
	<g>
		<rect x="376.265" y="421.676" width="59.883" height="29.942"/>
	</g>
</g>
<g>
</g>
<g>
</g>
<g>
</g>
<g>
</g>
<g>
</g>
<g>
</g>
<g>
</g>
<g>
</g>
<g>
</g>
<g>
</g>
<g>
</g>
<g>
</g>
<g>
</g>
<g>
</g>
<g>
</g>
</svg>
