<?xml version="1.0" encoding="UTF-8" standalone="no"?>
<svg width="62px" height="41px" viewBox="0 0 62 41" version="1.1" xmlns="http://www.w3.org/2000/svg" xmlns:xlink="http://www.w3.org/1999/xlink">
    <!-- Generator: Sketch 40 (33762) - http://www.bohemiancoding.com/sketch -->
    <title>CVC</title>
    <desc>Created with Sketch.</desc>
    <defs></defs>
    <g id="Page-1" stroke="none" stroke-width="1" fill="none" fill-rule="evenodd">
        <g id="CVC">
            <path d="M60.75,35.209 C60.75,37.959 58.5,40.209 55.75,40.209 L5.75,40.209 C3,40.209 0.75,37.959 0.75,35.209 L0.75,5.209 C0.75,2.459 3,0.209 5.75,0.209 L55.75,0.209 C58.5,0.209 60.75,2.459 60.75,5.209 L60.75,35.209 L60.75,35.209 Z" id="Shape" fill="#CDCDCD"></path>
            <rect id="Rectangle-path" fill="#424143" x="2.5" y="6.5" width="59" height="8"></rect>
            <rect id="Rectangle-path" fill="#FFFFFF" x="8.5" y="18.5" width="36" height="8"></rect>
            <rect id="Rectangle-path" fill="#424143" x="11.5" y="21.5" width="29" height="2"></rect>
            <path d="M55.75,1.209 C57.956,1.209 59.75,3.003 59.75,5.209 L59.75,35.209 C59.75,37.415 57.956,39.209 55.75,39.209 L5.75,39.209 C3.544,39.209 1.75,37.415 1.75,35.209 L1.75,5.209 C1.75,3.003 3.544,1.209 5.75,1.209 L55.75,1.209 L55.75,1.209 Z M55.75,0.209 L5.75,0.209 C3,0.209 0.75,2.459 0.75,5.209 L0.75,35.209 C0.75,37.959 3,40.209 5.75,40.209 L55.75,40.209 C58.5,40.209 60.75,37.959 60.75,35.209 L60.75,5.209 C60.75,2.459 58.5,0.209 55.75,0.209 L55.75,0.209 L55.75,0.209 Z" id="Shape" fill="#DFDEDD"></path>
            <rect id="Rectangle-path" fill="#FFFFFF" x="47.5" y="18.5" width="8" height="8"></rect>
            <rect id="Rectangle-path" fill="#424143" x="48.5" y="21.5" width="6" height="2"></rect>
            <circle id="Oval" stroke="#E9564B" stroke-width="2" cx="51" cy="22.396" r="7.75"></circle>
        </g>
    </g>
</svg>